<svg width="1535" height="826" viewBox="0 0 1535 826" fill="none" xmlns="http://www.w3.org/2000/svg">
<path d="M315.112 0C362.221 32.4985 409.621 81.0368 457.549 111.342C461.946 110.069 471.178 108.199 475.668 108.95C494.349 112.094 510.152 114.68 529.391 112.955C530.993 112.811 540.233 113.096 542.085 113.402C564.623 117.089 591.504 105.369 610.381 121.973C621.461 131.72 623.602 156.484 616.816 167.126C601.912 190.5 575.112 183.501 553.068 185.991C549.028 186.448 544.577 207.277 542.361 214.461C539.733 222.935 536.282 231.132 532.059 238.934C527.445 247.458 510.722 268.204 515.872 276.722C523.099 288.677 539.816 296.869 542.744 312.091C545.344 328.421 535.197 344.914 535.048 360.987C534.253 433.548 536.005 506.064 536.429 578.612C536.496 589.984 526.469 600.057 516.13 593.833C512.736 584.885 514.859 539.7 514.707 526.961C514.218 495.385 514.034 463.8 514.152 432.212C514.134 418.025 513.18 386.104 516.379 373.692C510.295 379.285 506.462 383.154 501.155 389.558C499.093 406.581 499.922 422.555 499.496 439.621C497.815 506.865 502.686 574.187 499.061 641.392C498.494 651.894 487.43 654.004 478.956 654.268C477.85 641.382 478.215 626.376 478.209 613.236L478.183 550.857C478.17 505.849 476.81 452.663 478.541 408.51C467.253 419.06 461.802 425.597 461.588 441.985C461.396 456.786 462.544 471.469 462.605 486.348C462.596 528.748 462.994 571.149 463.798 613.539C464.358 640.532 465.209 667.398 463.184 694.372C462.413 704.64 441.842 710.639 441.854 695.867C441.861 685.97 442.194 676.093 442.205 666.187L442.164 594.41C442.139 583.009 442.159 571.871 441.569 560.49C439.575 522.007 440.465 483.379 440.723 444.886L439.992 445.59C423.976 460.821 413.949 459.463 414.223 487.032C414.38 502.908 411.778 521.568 411.862 538.753C411.95 556.953 413.801 573.816 414.195 591.547C414.978 630.548 414.688 669.567 413.325 708.548C412.641 727.442 421.944 750.401 394.221 749.756L392.692 748.896C391.17 736.89 392.191 693.561 392.223 679.474C392.503 633.351 392.468 587.22 392.118 541.088C381.176 553.202 372.874 559.855 374.28 577.489C374.673 590.424 377.192 603.711 377.036 616.645C376.397 669.851 375.92 722.978 376.037 776.183C376.057 785.552 374.212 794.413 362.604 795.351C350.579 796.318 354.122 775.274 354.193 767.234L354.26 726.309C354.29 678.467 354.658 629.971 354.132 582.149C346.812 586.878 341.222 591.284 335.148 597.644C334.271 609.973 336.774 624.94 336.911 637.826L339.059 764.127C339.513 781.204 340.282 798.506 340.118 815.32C340.021 825.304 325.413 827.854 321.987 822.559C318.003 816.414 319.899 791.658 319.602 784.145C317.96 742.605 318.215 700.429 316.006 659.026L314.009 658.918L313.854 660.374C312.385 674.774 313.095 690.875 312.647 705.529C311.649 740.827 310.717 777.121 311.263 812.33C312.707 828.255 294.241 829.271 292.091 818.006C287.925 796.191 292.35 768.953 291.909 746.112C290.967 697.342 294.126 648.143 294.462 599.558C289.282 591.538 282.283 584.855 274.035 580.049C275.071 598.2 276.379 787.545 273.602 792.703C266.9 796.435 253.821 791.189 253.839 782.543C253.885 760.405 253.92 738.247 253.813 716.11C252.608 683.88 251.825 652.559 252.237 620.241C252.465 602.294 256.421 582.608 253.332 565.13C251.926 557.178 242.313 546.793 236.724 540.961C238.588 600.477 235.843 661.165 236.889 720.838C237.044 729.611 237.198 739.83 236.654 748.466C225.209 746.532 214.727 746.64 214.767 732.2C214.92 677.295 213.07 622.097 216.158 567.27C216.233 552.557 216.582 537.18 216.397 522.535C216.209 507.627 217.656 489.319 215.216 474.957C213.733 466.223 193.706 446.801 186.831 441.516C187.258 480.33 187.273 519.145 186.875 557.96C186.017 603.31 183.691 648.455 185.457 693.913C185.59 697.333 184.534 700.107 182.766 702.94C176.805 707.356 170.967 703.018 166.77 698.339C165.183 696.571 164.1 689.634 164.111 687.328C164.377 629.297 164.338 571.266 165.02 513.234C165.342 485.938 168.513 457.45 164.997 430.278C164.167 424.141 155.286 414.13 151.03 409.24C151.689 483.252 150.592 558.477 149.136 632.521C149.005 639.233 151.359 646.423 150.182 652.959C146.85 654.854 144.84 654.141 141.212 653.408C132.725 651.699 128.273 643.795 128.246 635.579C128.196 620.641 128.492 605.606 128.356 590.649C127.699 540.619 131.509 491.38 130.38 441.223C130.06 427.001 131.467 408.59 128.992 394.636C127.764 387.72 119.234 379.398 113.916 374.589C115.591 385.861 115.269 408.94 115.139 421.151C114.788 454.226 113.9 488.332 113.419 521.265C113.226 534.561 114.552 582.628 112.392 592.163C109.496 594.527 106.965 594.947 103.197 594.644C99.4896 594.351 96.0504 593.257 93.7768 590.141C90.1695 585.197 92.1988 509.327 92.2369 497.476C92.3855 451.852 96.0748 405.684 94.0474 360.131C93.339 344.202 80.7478 327.589 84.5329 311.684C87.7464 298.179 102.132 288.517 108.368 276.336C109.933 273.279 110.828 270.119 109.846 266.723C106.956 256.735 95.4016 238.587 90.5505 227.988C84.5729 214.929 80.8601 200.128 76.7419 186.362C56.6996 184.491 20.835 187.653 6.24376 173.598C-0.737264 166.872 -1.23068 145.271 1.66725 135.851C10.7763 106.25 55.7109 118.394 79.0028 113.945C101.203 109.704 107.207 104.878 128.693 113.692C149.976 108.202 152.589 106.956 174.507 113.314C221.216 79.1141 266.401 32.816 315.112 0ZM208.079 119.096C225.904 118.727 243.47 119.76 261.445 119.496C281.401 119.204 297.874 115.623 317.697 118.318C336.155 120.177 340.256 118.01 358.374 117.284C371.125 116.773 399.522 122.525 411.753 116.703C413.156 116.034 417.763 113.342 419.203 112.513C405.118 101.651 391.382 90.3443 378.014 78.611C353.896 57.2654 343.003 44.6627 313.503 28.0309C286.239 43.2187 261.695 69.8184 238.151 90.5397C231.273 96.5929 212.999 112.566 208.079 119.096ZM237.084 513.762C255.726 532.92 292.73 571.51 313.039 585.52C316.565 583.028 335.255 569.927 337.382 567.837C348.719 556.66 386.191 523.248 392.493 511.564C394.089 503.338 394.147 499.85 394.293 491.419C367.213 514.094 344.413 551.902 312.125 563.958C292.089 554.267 266.123 511.72 246.453 496.724C243.085 494.154 240.121 490.1 236.177 488.371C235.888 498.648 235.998 503.67 237.084 513.762ZM191.168 203.215C199.964 213.766 205.969 221.91 215.765 231.706C223.123 237.616 240.287 250.733 246.164 256.899C254.722 247.745 303.748 206.971 303.483 199.146C281.254 202.953 268.708 200.84 246.654 199.944C229.692 199.256 207.726 200.174 191.168 203.215ZM323.346 202.858C341.661 222.987 364.379 235.246 383.35 257.309C389.008 252.402 394.593 247.411 400.103 242.338C413.929 229.029 428.424 215.456 440.571 200.644C420.79 200.78 401.166 201.114 381.391 201.78C371.926 202.099 361.666 200.101 353.068 200.146C342.937 201.84 333.614 203.968 323.346 202.858ZM189.292 345.923C182.463 355.753 162.991 381.59 158.431 390.202C162.516 394.748 169.452 403.141 174.583 405.575C187.376 388.288 189.828 378.845 206.128 361.857C198.499 355.436 196.014 352.379 189.292 345.923ZM277.56 501.364C283.938 508.721 304.998 531.132 312.49 537.277C312.925 537.248 314.572 537.199 314.92 537.082C323.397 529.628 346.122 510.587 352.309 502.507C347.874 497.564 318.478 471.85 312.856 468.099C300.925 481.806 288.788 489.416 277.56 501.364ZM201.8 332.181C207.085 337.76 209.182 339.695 215.278 344.354C222.912 338.55 249.639 309.788 256.758 301.974C253.722 298.248 249.345 292.4 245.781 289.496C229.964 303.1 216.834 318.343 201.8 332.181ZM150.801 276.172C167.933 260.546 177.021 255.514 192.758 237.259C185.322 229.933 175.78 214.685 171.456 211.433C164.35 215.411 161.646 224.271 155.144 230.474C148.546 236.77 135.966 243.704 131.888 251.266C132.585 256.662 146.508 273.23 150.801 276.172ZM314.369 220.213C302.155 238.873 272.3 258.547 256.32 275.667C260.582 281.964 262.851 284.217 269.187 288.989C278.251 280.311 305.545 250.748 314.228 246.232C321.656 250.637 350.596 280.462 357.521 287.564C363.759 282.811 368.073 279.323 373.842 274.045C368.667 268.934 361.071 264.197 356.907 259.789C344.164 246.295 326.607 233.372 314.369 220.213ZM352.619 400.086C340.779 388.643 326.642 374.356 313.874 364.556C302.829 378.455 285.291 390.596 274.567 403.392C287.386 413.876 301.446 424.987 313.207 436.462C325.404 424.524 339.204 410.186 352.619 400.086ZM153.474 312.694C145.217 323.482 126.277 340.499 124.46 353.572C123.975 357.059 134.598 369.432 138.182 370.522L140.889 369.236C149.719 357.225 162.61 341.238 172.635 330.227C161.847 323.089 159.731 317.342 153.474 312.694ZM211.562 437.439L217.106 433.302C226.424 424.58 242.953 410.608 250.423 401.76C243.985 396.599 227.142 382.53 221.339 378.326C216.389 384.637 212.308 390.762 207.62 397.224C202.32 404.527 195.253 411.898 190.676 419.564C197.819 425.307 204.784 431.269 211.562 437.439ZM312.999 331.555C323.29 323.076 334.934 311.341 344.462 301.735C336.525 293.959 323.19 280.42 314.581 273.664C305.433 283.188 292.865 294.221 284.54 303.467C287.916 308.068 308.543 329.027 312.999 331.555ZM480.206 178.426C485.743 174.122 485.857 167.528 486.831 160.77C487.801 154.031 490.88 139.448 488.265 133.722C483.437 130.145 476.528 131.072 470.39 131.152C466.572 139.25 462.867 172.556 465.188 180.771C469.321 184.087 475.809 180.423 480.206 178.426ZM415.28 342.69C420.033 338.995 425.02 335.227 429.676 331.446C414.967 317.464 401.126 302.574 385.471 289.592C380.323 295.383 374.779 299.226 370.623 303.842C373.831 306.424 416.545 342.971 415.28 342.69ZM438.656 419.557C434.505 411.949 415.145 382.17 409.447 376.364C399.635 385.563 388.571 394.155 377.822 402.28C389.058 413.232 402.492 422.379 412.762 432.642C414.898 434.073 416.072 435.503 418.908 434.506C424.581 432.513 434.639 423.796 438.656 419.557ZM419.844 178.724C426.189 179.27 428.531 178.708 434.798 177.709C437.489 169.41 445.145 138.269 442.267 130.909L440.134 130.645C429.863 132.796 425.345 132.815 417.09 139.145C417.238 147.075 415.122 175.479 419.844 178.724ZM440.81 346.026C435.743 351.982 430.914 356.479 425.956 362.023C436.099 376.093 445.608 390.609 454.456 405.527C456.115 405.317 455.541 405.674 456.384 404.886C461.621 399.645 467.392 394.101 472.465 388.778C464.709 372.608 452.594 359.389 440.81 346.026ZM100.468 132.653C98.5975 133.258 95.2482 134.27 94.7157 136.531C92.0415 147.873 93.9409 163.134 97.9605 173.997C99.981 179.456 103.81 179.723 108.654 179.36C112.241 177.288 114.465 176.012 115.135 171.692C116.556 162.533 118.504 142.551 114.339 134.646C110.499 131.359 105.538 132.335 100.468 132.653ZM527.845 178.555C533.452 164.315 538.977 149.834 536.628 134.344C530.668 134.469 523.42 134.435 517.585 134.861C516.131 135.353 513.959 135.75 513.692 137.546C511.844 149.936 502.693 189.52 527.845 178.555ZM261.067 140.299C258.771 140.347 253.564 140.312 251.488 140.633C247.196 140.774 237.868 140.512 234.78 142.289C231.652 149.293 229.527 173.689 235.893 178.829C238.204 179.204 238.856 179.413 241.168 179.268C256.03 172.079 258.734 155.371 261.067 140.299ZM394.275 140.216C387.436 139.856 379.983 139.302 373.196 139.114C371.67 146.684 371.228 153.606 370.71 161.457C370.294 167.772 369.486 179.084 378.8 179.252C382.741 179.324 386.053 179.666 389.334 177.161C395.639 163.566 394.414 154.867 394.275 140.216ZM113.414 329.2C120.337 318.621 129.654 310.68 136.441 299.934C134.452 295.676 131.591 289.808 127.886 286.853C124.859 291.187 121.354 296.925 119.076 301.684C114.352 311.553 103.657 319.525 110.915 330.777L112.341 331.06L113.414 329.2ZM481.715 202.276C486.692 207.51 505.767 226.454 510.844 229.947C516.795 222.97 523.427 208.47 514.547 202.256C510.58 199.481 497.181 198.994 492.832 200.096L481.715 202.276ZM129.479 220.978C132.628 217.778 137.35 213.264 140.127 209.939C137.898 195.251 132.407 197.492 119.239 197.832C111.447 207.512 115.788 219.256 118.849 230.262C123.747 226.601 125.193 225.43 129.479 220.978ZM207.533 249.412C199.858 260.044 191.456 268.263 181.368 276.671C161.57 293.174 166.951 300.426 183.741 315.024C186.451 315.418 186.359 315.197 188.925 314.06C200.434 301.498 221.47 282.159 230.826 270.685C223.671 263.258 213.361 255.882 207.533 249.412ZM477.379 275.531C485.131 265.901 497.273 255.153 502.984 247.47C491.532 241.362 482.471 240.481 473.523 230.102C467.931 223.616 467.979 210.074 459.262 209.137C446.114 219.174 449.856 227.824 434.628 238.651C439.833 245.91 470.632 273.084 477.379 275.531ZM491.446 300.798C499.04 311.11 508.582 319.373 516.508 329.768L517.979 330.488C521.612 310.5 506.499 301.713 497.282 286.602C494.042 291.438 493.136 295.31 491.446 300.798ZM321.323 139.868C322.956 157.697 323.343 163.483 322.222 181.295C324.688 182.235 328.709 181.07 331.751 180.581C336.625 178.068 338.676 175.76 341.74 170.43C345.128 164.536 355.543 140.836 344.673 138.496C343.357 138.212 337.383 138.649 335.512 138.789C330.932 139.101 325.834 139.326 321.323 139.868ZM593.173 164.868C606.097 154.694 605.971 135.346 588.107 133.132C580.123 132.143 566.248 133.566 557.46 133.775L555.716 134.97C553.638 148.639 555.87 148.442 551.036 165.073C558.959 165.291 586.665 166.146 593.173 164.868ZM297.029 137.629C290.072 138.287 287.301 138.488 280.97 142.021C281.03 149.833 279.394 175.749 281.344 179.714C283.487 180.822 283.634 181.155 285.984 181.246C291.338 180 297.636 179.053 301.168 174.729C301.96 170.286 303.276 140.59 301.474 137.695L297.029 137.629ZM143.16 132.631C140.044 135.806 139.155 136.632 139.527 142.017C140.172 151.344 141.462 171.691 147.309 178.891C150.64 180.564 152.526 180.582 156.031 179.014C164.311 169.495 163.909 143.474 157.084 134.086C152.581 131.074 148.565 132.065 143.16 132.631ZM76.1586 165.731C74.1019 152.65 74.0384 146.642 74.1517 133.461C70.5943 133.525 61.9317 133.455 58.7475 133.793C51.1226 134.316 25.5786 134.473 21.7417 137.796C18.621 143.715 16.8575 158.191 23.8102 161.957C28.6075 164.556 36.6594 164.701 42.2149 164.973C53.96 165.832 63.8038 164.124 76.1586 165.731ZM188.496 135.565C185.17 139.709 185.32 177.505 189.863 180.895C194.875 181.006 198.366 178.931 202.571 176.27C208.58 169.872 208.07 162.198 209.196 153.858C209.832 149.154 211.195 140.528 208.85 136.463C203.573 134.121 194.513 135.231 188.496 135.565ZM472.878 312.606C467.135 319.791 463.068 324.01 456.573 330.562C460.923 335.709 487.999 370.254 489.881 370.96C495.151 366.313 504.613 359.27 505.985 352.758C503.364 343.834 479.528 317.164 472.878 312.606ZM419.626 250.562C413.948 256.569 402.698 267.487 398.017 273.19C411.15 287.243 426.314 299.228 441.17 314.823L442.558 314.597C451.549 308.352 456.593 301.311 463.643 292.866C457.88 283.57 444.716 275.763 436.377 267.883C429.846 261.712 425.661 257.2 419.626 250.562ZM397.765 358.125C387.015 345.605 369.56 328.685 357.659 316.691C350.416 326.656 334.945 339.803 324.958 347.872C337.09 360.988 352.682 372.999 365.916 385.844C376.752 376.884 386.018 365.917 397.765 358.125ZM231.729 359.878C236.815 364.252 258.871 384.528 262.867 385.339C274.262 376.25 291.761 357.553 302.812 346.778C294.608 340.445 286.836 333.57 279.55 326.199C278.087 324.742 271.243 316.989 270.848 316.667C261.362 329.654 243.597 349.035 231.729 359.878ZM323.846 452.516C343.272 466.848 349.099 470.893 365.641 488.429C369.669 485.44 374.316 480.145 378.273 476.471C387.083 468.294 396.195 460.225 404.689 451.735C384.139 436.064 381.912 430.342 365.585 415.597C351.707 431.525 339.293 439.298 323.846 452.516ZM227.105 453.357C234.107 458.945 254.051 478.455 262.071 485.606C262.419 485.909 264.486 485.557 265.13 485.333C277.584 473.668 288.196 463.458 301.591 452.8C295.051 446.821 268.245 420.606 262.14 417.237C247.087 434.3 242.803 438.458 227.105 453.357Z" fill="#0B3D2E"/>
<path d="M315.369 631.837C315.998 639.565 316.813 651.24 316.006 659.026L314.009 658.918C313.465 650.136 314.127 640.542 315.369 631.837Z" fill="#989899"/>
<path d="M1297.33 414.827C1301.17 414.271 1304.31 414.133 1304.58 419.309C1305.34 434.54 1304.88 450.025 1304.87 465.315L1304.76 617.427C1304.76 641.91 1303.81 669.724 1306.41 694.177C1306.69 696.697 1308.16 698.505 1309.76 700.351C1315.83 703.292 1328.66 697.811 1334.53 704.562C1335.76 708.743 1334.47 712.466 1330.07 714.058C1311.93 720.682 1289.85 729.484 1270.45 724.912C1262.77 723.105 1259.2 715.856 1256.12 709.505C1217 725.527 1175.93 740.153 1138.19 712.446C1082.68 668.18 1093.94 560.06 1154.64 525.28C1186.09 507.265 1216.73 511.642 1250.05 520.024C1250.11 508.271 1255.71 464.357 1248.88 454.773C1243.78 447.622 1217.27 454.588 1220.49 435.077C1223.24 432.112 1234.77 430.209 1239.23 429.114L1297.33 414.827ZM1212.97 695.095C1223.43 694.587 1242 693.22 1249.4 684.867C1255.69 677.784 1250.49 566.176 1249.83 548.639C1234.29 540.755 1217.89 536.437 1200.33 538.098C1188.48 540.56 1179.48 544.761 1172.82 555.566C1157.5 580.439 1156.33 615.502 1162.01 643.316C1167.9 672.215 1180.8 693.854 1212.97 695.095Z" fill="#0B3D2E"/>
<path d="M1393.8 155.215C1399.47 154.966 1400.84 155.302 1405.94 156.031C1466.18 164.644 1474.37 196.867 1473.14 252.09C1473.15 274.008 1473.28 295.784 1473.01 317.715C1472.94 323.677 1471.23 340.261 1475.46 344.398C1482.3 351.1 1498.92 334.519 1504.58 342.583C1504.96 345.107 1505.69 351.222 1503.91 353.236C1489.48 369.525 1456.66 381.978 1436.32 371.418C1427.27 366.714 1424.22 358.678 1421.59 350.008C1387.69 375.262 1348.31 392.66 1314.42 356.49C1307.69 347.266 1303.31 336.922 1302.75 325.42C1299.13 250.877 1407.45 262.326 1419.82 242.635C1423.47 236.842 1419.17 217.048 1417.56 210.203C1415.48 201.313 1411.94 192.065 1403.71 187.234C1396.67 183.097 1384.52 181.699 1376.68 184.011C1358.26 189.448 1359.2 212.012 1351.16 225.658C1349.49 228.487 1347.03 230.937 1343.73 231.675C1338 232.957 1329.16 230.491 1324.44 227.166C1320.09 224.108 1317.82 219.615 1317.08 214.425C1315.48 203.049 1320.7 192.326 1327.5 183.585C1344.5 161.753 1367.91 158.325 1393.8 155.215ZM1361.36 336.974C1380.48 349.33 1404.69 336.005 1421.22 325.603C1421.25 318.259 1422 277.634 1419.04 272.938L1417.67 273.133C1395.29 279.009 1368.72 282.483 1355.01 303.482C1347.71 314.647 1352.2 328.381 1361.36 336.974Z" fill="#0B3D2E"/>
<path d="M970.143 509.805C1014.51 504.735 1052.85 521.128 1058.06 568.892C1059.64 583.439 1059.09 596.237 1059.03 610.754C1058.9 632.16 1058.96 653.575 1059.2 674.989C1059.26 680.851 1058.04 692.926 1062.7 696.854C1070.74 703.644 1086.03 694.089 1093.67 701.162C1097.29 714.761 1074.64 721.717 1064.67 724.082C1038.34 730.334 1015.76 732.474 1008.01 701.885C1002 705.881 996.504 710.424 990.271 714.234C960.558 732.395 931.433 736.753 903.86 713.423C888.198 697.127 885.15 671.15 894.862 651.074C914.52 610.432 968.736 612.65 1006.88 598.279C1006.71 571.109 1006.42 531.357 966.264 535.968C944.916 538.42 942.766 585.471 929.635 585.295C899.688 584.894 896.22 558.829 913.142 538.694C930.436 518.119 945.209 513.225 970.143 509.805ZM948.785 690.289C969.127 699.677 988.952 689.282 1006.73 679.825C1006.75 674.52 1007.18 627.881 1005.35 625.8L1001.93 625.702C979.582 634.983 927.085 638.647 940.724 679.747C941.828 683.069 946.127 687.856 948.785 690.289Z" fill="#0B3D2E"/>
<path d="M730.325 75.0773C746.163 74.4228 765.09 74.8946 781.104 74.8848L873.523 74.8741C889.185 74.8897 959.738 73.9294 969.85 76.7098C975.078 90.5426 973.925 128.433 976.856 144.95C977.247 147.116 976.045 150.913 975.009 152.957C973.192 154.027 972.586 153.816 970.515 153.706C947.71 152.489 953.68 123.293 940.9 110.767C928.785 98.8956 889.107 99.4339 871.999 99.131C870.582 108.695 870.895 122.342 871.051 132.27C872.106 195.739 871.784 259.17 872.311 322.634C872.35 327.204 872.829 337.219 874.686 341.261C878.809 343.964 883.645 344.761 888.511 345.998C907.622 351.507 911.726 349.388 910.964 371.063C900.362 372.402 882.678 371.066 870.963 371.041C840.264 370.975 806.771 371.995 776.355 371.385C776.267 363.998 776.404 361.277 777.498 353.986C789.594 348.168 801.7 347.326 811.236 342.546C818.73 334.644 816.248 262.427 816.229 247.107L816.033 99.599C812.692 99.6928 809.35 99.8666 806.028 100.121C785.119 101.777 746.917 103.543 739.158 127.282C733.069 145.911 735.613 153.082 714.067 154.142C713.636 138.923 714.498 94.3371 718.244 78.6872C718.843 76.1842 727.275 75.432 730.325 75.0773Z" fill="#0B3D2E"/>
<path d="M1061.65 157.256C1111.42 154.366 1148.47 183.422 1153.17 233.621C1154.95 254.181 1150.88 259.704 1130.54 261.153C1094.89 263.69 1055.06 258.89 1019.9 262.404L1018.36 262.566C1021.37 328.295 1063.88 366.341 1127.11 331.713C1134.78 327.512 1146.06 324.611 1154.56 322.688C1159.5 326.519 1159.37 331.369 1155.14 335.679C1133.45 357.683 1111.29 373.452 1079.8 377.001C1019.06 383.843 970.3 342.292 964.408 281.707C958.214 218.063 995.302 163.278 1061.65 157.256ZM1019.05 236.372C1031.88 235.937 1046.04 235.188 1058.74 235.602C1070.54 235.651 1086.95 235.98 1098.5 234.682C1098.69 206.212 1097.42 180.165 1060.78 181.584C1029.78 185.804 1023.35 210.174 1019.05 236.372Z" fill="#0B3D2E"/>
<path d="M1438.77 509.737C1461.36 508.203 1483.37 512.199 1502.94 526.629C1522.39 539.778 1543.59 586.594 1529.68 607.052C1523.65 615.913 1471.58 613.842 1459.96 613.851C1439.48 613.881 1419 614.438 1398.54 615.532C1398.69 627.05 1400.6 638.48 1404.21 649.422C1419.71 696.443 1463.72 709.505 1504.25 682.825C1510.09 678.975 1518.6 675.468 1525.2 673.026C1528.57 672.44 1528.57 672.44 1531.98 672.762C1536.08 676.406 1532.92 681.73 1530.12 685.511C1514.51 706.36 1489.84 722.802 1463.8 727.325C1344.13 748.125 1303.84 586.926 1393.41 525.261C1407.32 515.687 1422.38 512.726 1438.77 509.737ZM1399.73 589.095C1415.23 588.851 1430.73 588.851 1446.23 589.115C1450.78 588.841 1473.94 586.926 1477.01 586.155C1479.16 581.377 1479.03 574.07 1478.41 568.872C1474.91 539.319 1462.81 531.591 1435.45 534.122C1408.72 541.39 1401.35 564.486 1399.73 589.095Z" fill="#0B3D2E"/>
<path d="M748.195 429.189L826.087 429.098C840.792 429.071 860.382 428.477 874.764 429.49C875.946 430.706 876.444 431.214 876.513 433.079C877.519 464.084 841.691 434.918 842.062 474.058C842.619 532.52 841.104 590.512 842.023 648.944C842.335 669.04 842.687 691.285 839.131 710.873C835.926 729.162 828.754 746.522 818.114 761.734C802.511 784.194 783.898 795.321 757.41 800.079C742.5 801.203 729.552 799.249 715.744 794.061C704.182 789.714 688.494 785.395 692.45 769.911C693.492 765.837 696.345 761.714 699.654 759.193C724.152 740.494 732.956 780.618 755.269 780.423C771.167 780.579 779.062 767.087 782.823 753.185C787.318 732.063 785.872 710.101 786.126 688.598C787.005 617.222 786.038 545.122 785.842 473.804C785.754 442.747 768.197 458.036 750 444.525C747.086 442.356 748.076 432.952 748.195 429.189Z" fill="#0B3D2E"/>
<path d="M1249.91 162.01C1253.89 161.289 1255.13 160.917 1258.32 163.147C1262.01 170.581 1259.62 185.572 1259.62 194.526L1259.58 271.747C1259.62 293.058 1259.22 313.769 1261.75 335.009C1263.64 350.908 1270.11 347.612 1282.04 352.755C1288.4 355.5 1287.04 366.002 1286.74 371.246C1258.69 373.438 1217.86 368.826 1191.71 371.536C1185.27 371.774 1180.98 373.191 1176.6 368.041C1175.4 363.452 1176.44 358.84 1177.03 354.02C1184.48 351.734 1198.51 348.109 1203.16 342.56C1207.32 329.347 1208.11 214.773 1204.72 201.412C1199.53 194.026 1189.43 196.339 1185 193.696C1154.99 175.832 1241.34 163.476 1249.91 162.01Z" fill="#0B3D2E"/>
<path d="M1221.42 71.0142C1230.45 70.5628 1237.93 69.8301 1246.34 74.6201C1261.55 83.2935 1263.86 105.749 1255.27 119.781C1251.86 125.352 1246.65 128.647 1240.3 130.189C1207.26 136.963 1191.34 115.174 1204.14 82.9907C1206.81 76.2633 1214.64 72.843 1221.42 71.0142Z" fill="#0B3D2E"/>
</svg>
